<?xml version="1.0" encoding="utf-8"?>
<!-- Generator: Adobe Illustrator 27.7.0, SVG Export Plug-In . SVG Version: 6.00 Build 0)  -->
<svg version="1.1" xmlns="http://www.w3.org/2000/svg" xmlns:xlink="http://www.w3.org/1999/xlink" x="0px" y="0px"
	 viewBox="0 0 200 47" style="enable-background:new 0 0 200 47;" xml:space="preserve">
<style type="text/css">
	.st0{fill:#D9242C;}
	.st1{fill:#FEFEFE;}
</style>
<g id="Layer_1">
	<g id="Layer_1_00000041277220707228937290000017099409729193355446_">
		<path class="st0" d="M197.6,33.5c-1.8-1.9-4-2.7-6.6-2.8c-1.2-0.9-0.2-1.1,0.5-1.7c10.1-5.2-0.6-10-6.8-11.3
			c-0.5-1.1,0.9-0.6,1-1.2C232-5.4,14.9,4.1,8,8l0,0c-10.5,1.7-7.4,9.2,1.2,11.2C2.1,23,1,29,9.7,31c-22,19,28.2,12.6,37.2,13
			c16.9-1.6,33.9-1,50.9-0.9c19.7,0.3,39.3-0.9,59-1.8C163.3,40.2,205.2,46,197.6,33.5L197.6,33.5z"/>
	</g>
</g>
<g id="Layer_2">
	<g id="expanded">
		<g>
			<g>
				<g>
					<path d="M22.2,24c0-2.1,0.3-4,1-5.8s1.6-3.4,2.8-4.7s2.7-2.4,4.4-3.1C32.1,9.7,34,9.3,36,9.3c0.8,0,1.7,0.1,2.8,0.2
						s2,0.4,2.8,0.7c0.9,0.3,1.6,0.8,2.2,1.4s0.9,1.3,0.9,2.2c0,0.7-0.2,1.4-0.7,1.9c-0.5,0.5-1.1,0.8-1.8,0.8c-0.4,0-1-0.1-1.8-0.5
						c-0.8-0.3-1.5-0.5-2-0.7S37,15.1,36,15.1c-1.2,0-2.3,0.2-3.2,0.7c-0.9,0.5-1.7,1.1-2.3,1.9s-1.1,1.8-1.4,2.9s-0.5,2.3-0.5,3.5
						c0,2.5,0.7,4.6,2,6.3S33.6,33,36,33c1,0,1.8-0.1,2.3-0.3c0.6-0.2,1.3-0.5,2.1-0.8s1.5-0.5,1.9-0.5c0.8,0,1.5,0.3,1.9,0.9
						c0.5,0.6,0.7,1.2,0.7,1.8c0,1.2-0.5,2.1-1.5,2.8s-2.2,1.2-3.6,1.5s-2.7,0.4-3.9,0.4c-2.7,0-5-0.7-7.1-1.9s-3.7-3.1-4.9-5.3
						C22.8,29.3,22.2,26.8,22.2,24z"/>
					<path d="M57.1,16.5c1.5,0,2.9,0.3,4.2,0.9c1.3,0.6,2.4,1.4,3.3,2.5c0.9,1,1.6,2.2,2.1,3.5c0.5,1.3,0.8,2.7,0.8,4.2
						s-0.2,2.9-0.8,4.3s-1.2,2.5-2.1,3.5s-2,1.8-3.3,2.4c-1.3,0.6-2.7,0.9-4.2,0.9c-2,0-3.8-0.5-5.3-1.5c-1.6-1-2.8-2.3-3.7-4
						c-0.9-1.7-1.3-3.5-1.3-5.6c0-1.4,0.2-2.8,0.8-4.2s1.2-2.5,2.1-3.6c0.9-1,2-1.9,3.3-2.5S55.6,16.5,57.1,16.5L57.1,16.5z
						 M57.1,21.8c-1,0-1.8,0.3-2.5,0.9s-1.2,1.3-1.5,2.2s-0.5,1.9-0.5,2.8s0.2,1.9,0.5,2.8c0.3,0.9,0.9,1.6,1.5,2.2s1.5,0.8,2.5,0.8
						s1.8-0.3,2.5-0.8c0.7-0.5,1.2-1.3,1.5-2.2s0.5-1.8,0.5-2.8s-0.2-1.9-0.5-2.8s-0.8-1.6-1.5-2.2C58.9,22.1,58.1,21.8,57.1,21.8z"
						/>
					<path d="M69.9,35.3V20c0-1,0.3-1.7,0.8-2.3s1.2-0.9,2.1-0.9c0.7,0,1.3,0.2,1.8,0.6c0.5,0.4,0.8,0.9,0.8,1.6
						c1.1-1.6,3-2.4,5.6-2.4c1.5,0,2.9,0.3,4.1,0.9s2.1,1.5,2.8,2.7c0.7,1.2,1,2.5,1,4.1v11c0,0.6-0.1,1.2-0.4,1.7
						c-0.2,0.5-0.6,0.9-1,1.1c-0.4,0.3-0.9,0.4-1.5,0.4c-0.9,0-1.6-0.3-2.1-0.9s-0.8-1.4-0.8-2.3v-10c0-1.3-0.3-2.3-1-2.9
						c-0.7-0.7-1.6-1-2.7-1c-0.8,0-1.4,0.2-2,0.5c-0.6,0.3-1,0.8-1.3,1.4c-0.3,0.6-0.4,1.3-0.4,2v10c0,0.6-0.1,1.2-0.4,1.7
						c-0.2,0.5-0.6,0.9-1,1.1c-0.4,0.3-0.9,0.4-1.5,0.4c-0.9,0-1.6-0.3-2.1-0.9S69.9,36.3,69.9,35.3L69.9,35.3z"/>
					<path d="M93.5,35.3V22h-1.3c-0.8,0-1.4-0.2-1.8-0.7s-0.7-1.1-0.7-1.8c0-0.7,0.2-1.3,0.7-1.8s1.1-0.7,1.8-0.7h1.3v-3.4
						c0-0.9,0.3-1.7,0.8-2.3s1.2-0.9,2.1-0.9c0.6,0,1.1,0.1,1.5,0.4c0.4,0.3,0.8,0.6,1,1.1s0.4,1,0.4,1.7V17h1.6
						c0.8,0,1.4,0.2,2,0.6c0.5,0.4,0.8,1,0.8,1.9s-0.3,1.5-0.8,1.9c-0.5,0.4-1.2,0.6-2,0.6h-1.6v13.3c0,0.6-0.1,1.2-0.4,1.7
						c-0.2,0.5-0.6,0.9-1,1.1c-0.4,0.3-0.9,0.4-1.5,0.4c-0.9,0-1.6-0.3-2.1-0.9S93.5,36.3,93.5,35.3L93.5,35.3z"/>
					<path d="M120.9,29.6h-12.3c0.2,1.4,0.8,2.4,1.8,3.1s2.2,1,3.6,1c0.9,0,1.6-0.1,2.2-0.4s1.4-0.7,2.3-1.2s1.6-0.8,2-0.8
						c0.4,0,0.8,0.1,1.1,0.4c0.4,0.2,0.7,0.5,0.9,0.9s0.3,0.8,0.3,1.2c0,0.6-0.3,1.2-0.8,1.8s-1.3,1.1-2.2,1.6s-1.9,0.8-3.1,1.1
						s-2.2,0.4-3.3,0.4c-2.1,0-4-0.5-5.6-1.4s-2.9-2.3-3.8-4s-1.3-3.6-1.3-5.7c0-1.4,0.3-2.8,0.8-4.2c0.5-1.4,1.2-2.6,2.2-3.6
						s2-1.9,3.3-2.5s2.7-0.9,4.1-0.9s2.9,0.3,4.2,0.9s2.4,1.4,3.3,2.5s1.6,2.1,2.1,3.4s0.8,2.5,0.8,3.7
						C123.4,28.7,122.5,29.6,120.9,29.6L120.9,29.6z M108.5,25.7h9.2c-0.2-1.3-0.6-2.4-1.4-3.2s-1.9-1.2-3.1-1.2s-2.3,0.4-3.1,1.2
						S108.6,24.4,108.5,25.7z"/>
					<path d="M125.4,35.3V20c0-1,0.3-1.7,0.8-2.3s1.2-0.9,2.1-0.9c0.7,0,1.3,0.2,1.8,0.6s0.8,0.9,0.9,1.6c1.1-1.6,3-2.4,5.6-2.4
						c1.5,0,2.9,0.3,4.1,0.9s2.1,1.5,2.8,2.7s1,2.5,1,4.1v11c0,0.6-0.1,1.2-0.4,1.7s-0.6,0.9-1,1.1s-0.9,0.4-1.5,0.4
						c-0.9,0-1.6-0.3-2.1-0.9s-0.8-1.4-0.8-2.3v-10c0-1.3-0.4-2.3-1-2.9s-1.6-1-2.7-1c-0.8,0-1.4,0.2-2,0.5s-1,0.8-1.3,1.4
						s-0.4,1.3-0.4,2v10c0,0.6-0.1,1.2-0.4,1.7s-0.6,0.9-1,1.1s-0.9,0.4-1.5,0.4c-0.9,0-1.6-0.3-2.1-0.9S125.5,36.3,125.4,35.3
						L125.4,35.3z"/>
					<path d="M149.1,35.3V22h-1.3c-0.8,0-1.4-0.2-1.8-0.7s-0.7-1.1-0.7-1.8c0-0.7,0.2-1.3,0.7-1.8s1.1-0.7,1.8-0.7h1.3v-3.4
						c0-0.9,0.3-1.7,0.8-2.3s1.2-0.9,2.1-0.9c0.6,0,1.1,0.1,1.5,0.4s0.8,0.6,1,1.1s0.4,1,0.4,1.7V17h1.6c0.8,0,1.4,0.2,2,0.6
						s0.8,1,0.8,1.9s-0.3,1.5-0.8,1.9c-0.5,0.4-1.2,0.6-2,0.6h-1.6v13.3c0,0.6-0.1,1.2-0.4,1.7c-0.2,0.5-0.6,0.9-1,1.1
						c-0.4,0.3-0.9,0.4-1.5,0.4c-0.9,0-1.6-0.3-2.1-0.9S149.1,36.3,149.1,35.3L149.1,35.3z"/>
					<path d="M174,20.7c0,0.7-0.2,1.3-0.7,1.8s-1,0.8-1.7,0.8c-0.3,0-0.9-0.2-1.7-0.6s-1.5-0.7-1.9-0.8s-1-0.3-1.5-0.3
						s-1,0.1-1.4,0.4s-0.6,0.7-0.6,1.2c0,0.6,0.6,1.1,1.7,1.6s2.4,1,3.6,1.5s2.4,1.2,3.3,2.1s1.4,2.1,1.4,3.6c0,1.3-0.3,2.4-1,3.5
						s-1.6,1.8-2.9,2.4s-2.7,0.9-4.3,0.9c-1.1,0-2.3-0.2-3.6-0.6s-2.3-0.9-3.2-1.6s-1.3-1.4-1.3-2.2c0-0.5,0.2-1.1,0.7-1.7
						s1.1-0.9,1.8-0.9c0.5,0,1,0.1,1.4,0.2c0.4,0.2,0.9,0.4,1.5,0.7s1.1,0.6,1.5,0.7s1,0.2,1.6,0.2c0.9,0,1.4-0.1,1.8-0.4
						s0.5-0.7,0.5-1.2s-0.6-1.1-1.7-1.6s-2.3-1-3.6-1.5s-2.4-1.3-3.3-2.2s-1.4-2.1-1.4-3.6c0-1.3,0.3-2.5,1-3.5s1.6-1.8,2.8-2.4
						s2.5-0.9,4-0.9c1.1,0,2.1,0.2,3.2,0.5s2,0.8,2.8,1.4S174,19.8,174,20.7L174,20.7z"/>
				</g>
			</g>
		</g>
	</g>
	<g>
		<path class="st1" d="M21.2,23c0-2.1,0.3-4,1-5.8s1.6-3.4,2.8-4.7s2.7-2.4,4.4-3.1S33,8.3,35,8.3c0.8,0,1.7,0.1,2.8,0.2
			s2,0.4,2.8,0.7c0.9,0.3,1.6,0.8,2.2,1.4s0.9,1.3,0.9,2.2c0,0.7-0.2,1.4-0.7,1.9c-0.5,0.5-1.1,0.8-1.8,0.8c-0.4,0-1-0.1-1.8-0.4
			c-0.8-0.3-1.5-0.5-2-0.7S36,14.1,35,14.1c-1.2,0-2.3,0.2-3.2,0.7s-1.7,1.1-2.3,1.9s-1.1,1.8-1.4,2.9s-0.5,2.3-0.5,3.5
			c0,2.5,0.7,4.6,2,6.3S32.6,32,35,32c1,0,1.8-0.1,2.3-0.3c0.6-0.2,1.3-0.5,2.1-0.8s1.5-0.5,1.9-0.5c0.8,0,1.5,0.3,1.9,0.9
			S44,32.5,44,33c0,1.2-0.5,2.1-1.5,2.8s-2.2,1.2-3.6,1.5s-2.7,0.4-3.9,0.4c-2.7,0-5-0.7-7.1-1.9s-3.7-3.1-4.9-5.3
			C21.8,28.3,21.2,25.8,21.2,23z"/>
		<path class="st1" d="M56.1,15.5c1.5,0,2.9,0.3,4.2,0.9c1.3,0.6,2.4,1.4,3.3,2.5c0.9,1,1.6,2.2,2.1,3.5c0.5,1.3,0.8,2.7,0.8,4.2
			s-0.2,2.9-0.8,4.3s-1.2,2.5-2.1,3.5c-0.9,1-2,1.8-3.3,2.4c-1.3,0.6-2.7,0.9-4.2,0.9c-2,0-3.8-0.5-5.3-1.5c-1.6-1-2.8-2.3-3.7-4
			c-0.9-1.7-1.3-3.5-1.3-5.6c0-1.4,0.2-2.8,0.8-4.2s1.2-2.5,2.1-3.6c0.9-1,2-1.9,3.3-2.5S54.6,15.5,56.1,15.5L56.1,15.5z M56.1,20.8
			c-1,0-1.8,0.3-2.5,0.9s-1.2,1.3-1.5,2.2s-0.5,1.9-0.5,2.8s0.2,1.9,0.5,2.8c0.3,0.9,0.9,1.6,1.5,2.2s1.5,0.8,2.5,0.8
			s1.8-0.3,2.5-0.8c0.7-0.5,1.2-1.3,1.5-2.2s0.5-1.8,0.5-2.8s-0.2-1.9-0.5-2.8s-0.8-1.6-1.5-2.2C57.9,21.1,57.1,20.8,56.1,20.8z"/>
		<path class="st1" d="M68.9,34.3V19c0-1,0.3-1.7,0.8-2.3s1.2-0.9,2.1-0.9c0.7,0,1.3,0.2,1.8,0.6c0.5,0.4,0.8,0.9,0.8,1.6
			c1.1-1.6,3-2.4,5.6-2.4c1.5,0,2.9,0.3,4.1,0.9c1.2,0.6,2.1,1.5,2.8,2.7c0.7,1.2,1,2.5,1,4.1v11c0,0.6-0.1,1.2-0.4,1.7
			c-0.2,0.5-0.6,0.9-1,1.1c-0.4,0.3-0.9,0.4-1.5,0.4c-0.9,0-1.6-0.3-2.1-0.9s-0.8-1.4-0.8-2.3v-10c0-1.3-0.3-2.3-1-2.9
			c-0.7-0.7-1.6-1-2.7-1c-0.8,0-1.4,0.2-2,0.5c-0.6,0.3-1,0.8-1.3,1.4c-0.3,0.6-0.4,1.3-0.4,2v10c0,0.6-0.1,1.2-0.4,1.7
			c-0.2,0.5-0.6,0.9-1,1.1c-0.4,0.3-0.9,0.4-1.5,0.4c-0.9,0-1.6-0.3-2.1-0.9S68.9,35.3,68.9,34.3L68.9,34.3z"/>
		<path class="st1" d="M92.5,34.3V21h-1.3c-0.8,0-1.4-0.2-1.8-0.7s-0.7-1.1-0.7-1.8c0-0.7,0.2-1.3,0.7-1.8s1.1-0.7,1.8-0.7h1.3v-3.4
			c0-0.9,0.3-1.7,0.8-2.3s1.2-0.9,2.1-0.9c0.6,0,1.1,0.1,1.5,0.4c0.4,0.3,0.8,0.6,1,1.1s0.4,1,0.4,1.7V16h1.6c0.8,0,1.4,0.2,2,0.6
			c0.5,0.4,0.8,1,0.8,1.9s-0.3,1.5-0.8,1.9c-0.5,0.4-1.2,0.6-2,0.6h-1.6v13.3c0,0.6-0.1,1.2-0.4,1.7c-0.2,0.5-0.6,0.9-1,1.1
			c-0.4,0.3-0.9,0.4-1.5,0.4c-0.9,0-1.6-0.3-2.1-0.9S92.5,35.3,92.5,34.3L92.5,34.3z"/>
		<path class="st1" d="M119.9,28.6h-12.3c0.2,1.4,0.8,2.4,1.8,3.1s2.2,1.1,3.6,1.1c0.9,0,1.6-0.1,2.2-0.4s1.4-0.7,2.3-1.2
			s1.6-0.8,2-0.8c0.4,0,0.8,0.1,1.1,0.4s0.7,0.5,0.9,0.9s0.3,0.8,0.3,1.2c0,0.6-0.3,1.2-0.8,1.8s-1.3,1.1-2.2,1.6s-1.9,0.8-3.1,1.1
			s-2.2,0.4-3.3,0.4c-2.1,0-4-0.5-5.6-1.4s-2.9-2.3-3.8-4s-1.3-3.6-1.3-5.7c0-1.4,0.3-2.8,0.8-4.2s1.2-2.6,2.2-3.6s2-1.9,3.3-2.5
			s2.7-0.9,4.1-0.9s2.9,0.3,4.2,0.9s2.4,1.4,3.3,2.5s1.6,2.1,2.1,3.4s0.8,2.5,0.8,3.7C122.4,27.7,121.5,28.6,119.9,28.6L119.9,28.6z
			 M107.5,24.7h9.2c-0.2-1.3-0.6-2.4-1.4-3.2s-1.9-1.2-3.1-1.2s-2.3,0.4-3.1,1.2S107.6,23.4,107.5,24.7z"/>
		<path class="st1" d="M124.4,34.3V19c0-1,0.3-1.7,0.8-2.3s1.2-0.9,2.1-0.9c0.7,0,1.3,0.2,1.8,0.6s0.8,0.9,0.9,1.6
			c1.1-1.6,3-2.4,5.6-2.4c1.5,0,2.9,0.3,4.1,0.9s2.1,1.5,2.8,2.7s1,2.5,1,4.1v11c0,0.6-0.1,1.2-0.4,1.7s-0.6,0.9-1,1.1
			s-0.9,0.4-1.5,0.4c-0.9,0-1.6-0.3-2.1-0.9s-0.8-1.4-0.8-2.3v-10c0-1.3-0.4-2.3-1-2.9s-1.6-1-2.7-1c-0.8,0-1.4,0.2-2,0.5
			s-1,0.8-1.3,1.4s-0.4,1.3-0.4,2v10c0,0.6-0.1,1.2-0.4,1.7s-0.6,0.9-1,1.1s-0.9,0.4-1.5,0.4c-0.9,0-1.6-0.3-2.1-0.9
			S124.5,35.3,124.4,34.3L124.4,34.3z"/>
		<path class="st1" d="M148.1,34.3V21h-1.3c-0.8,0-1.4-0.2-1.8-0.7s-0.7-1.1-0.7-1.8c0-0.7,0.2-1.3,0.7-1.8s1.1-0.7,1.8-0.7h1.3
			v-3.4c0-0.9,0.3-1.7,0.8-2.3s1.2-0.9,2.1-0.9c0.6,0,1.1,0.1,1.5,0.4s0.8,0.6,1,1.1s0.4,1,0.4,1.7V16h1.6c0.8,0,1.4,0.2,2,0.6
			s0.8,1,0.8,1.9s-0.3,1.5-0.8,1.9c-0.5,0.4-1.2,0.6-2,0.6h-1.6v13.3c0,0.6-0.1,1.2-0.4,1.7c-0.2,0.5-0.6,0.9-1,1.1
			c-0.4,0.3-0.9,0.4-1.5,0.4c-0.9,0-1.6-0.3-2.1-0.9S148.1,35.3,148.1,34.3L148.1,34.3z"/>
		<path class="st1" d="M173,19.7c0,0.7-0.2,1.3-0.7,1.8s-1,0.8-1.7,0.8c-0.3,0-0.9-0.2-1.7-0.6s-1.5-0.7-1.9-0.8s-1-0.3-1.5-0.3
			s-1,0.1-1.4,0.4s-0.6,0.7-0.6,1.2c0,0.6,0.6,1.1,1.7,1.6s2.4,1,3.6,1.5s2.4,1.2,3.3,2.1s1.4,2.1,1.4,3.6c0,1.3-0.3,2.4-1,3.5
			s-1.6,1.8-2.9,2.4s-2.7,0.9-4.3,0.9c-1.1,0-2.3-0.2-3.6-0.6s-2.3-0.9-3.2-1.6s-1.3-1.4-1.3-2.2c0-0.5,0.2-1.1,0.7-1.7
			s1.1-0.9,1.8-0.9c0.5,0,1,0.1,1.4,0.2s0.9,0.4,1.5,0.8s1.1,0.6,1.5,0.7s1,0.2,1.6,0.2c0.9,0,1.4-0.1,1.8-0.4s0.5-0.7,0.5-1.2
			s-0.6-1.1-1.7-1.6s-2.3-1-3.6-1.5s-2.4-1.3-3.3-2.2s-1.4-2.1-1.4-3.6c0-1.3,0.3-2.5,1-3.5s1.6-1.8,2.8-2.4s2.5-0.9,4-0.9
			c1.1,0,2.1,0.2,3.2,0.5s2,0.8,2.8,1.4S173,18.8,173,19.7L173,19.7z"/>
	</g>
</g>
</svg>
