<?xml version="1.0" encoding="UTF-8"?>
<svg id="Layer_1" xmlns="http://www.w3.org/2000/svg" viewBox="0 0 50 50">
  <defs>
    <style>
      .cls-1 {
        stroke: #fff;
        stroke-miterlimit: 10;
      }
    </style>
  </defs>
  <path class="cls-1" d="M45.25,26.08v8.34c0,1.51-.59,2.93-1.66,4s-2.49,1.66-4.01,1.66c-3.12,0-5.66-2.54-5.66-5.66v-4.17c0-3.13,2.54-5.67,5.66-5.67h2.6c-.76-8.81-8.18-15.75-17.18-15.75S8.58,15.77,7.82,24.58h2.6c3.12,0,5.66,2.54,5.66,5.67v4.17c0,1.52-.59,2.95-1.67,4.01-1.04,1.06-2.47,1.65-3.99,1.65-3.13,0-5.67-2.54-5.67-5.66v-8.34C4.75,14.91,13.83,5.83,25,5.83s20.25,9.08,20.25,20.25Z"/>
</svg>