<?xml version="1.0" encoding="utf-8"?>
<!-- Generator: Adobe Illustrator 28.0.0, SVG Export Plug-In . SVG Version: 6.00 Build 0)  -->
<svg version="1.1" id="Layer_1" xmlns="http://www.w3.org/2000/svg" xmlns:xlink="http://www.w3.org/1999/xlink" x="0px" y="0px"
	 viewBox="0 0 50 50" style="enable-background:new 0 0 50 50;" xml:space="preserve">
<style type="text/css">
	.st0{stroke:#FFFFFF;stroke-miterlimit:10;}
	.st1{fill:none;stroke:#FFFFFF;stroke-width:2;stroke-miterlimit:10;}
	.st2{fill:#FFFFFF;stroke:#000000;stroke-miterlimit:10;}
</style>
<path class="st0" d="M40.1,46.1H20.4c-1.7,0-3-1.3-3-3V7c0-1.7,1.3-3,3-3h19.6c1.7,0,3,1.3,3,3v36.1C43.1,44.8,41.7,46.1,40.1,46.1z
	"/>
<path class="st1" d="M30.1,4.6H10.4C8.5,4.6,6.9,6,6.9,7.8v34.4c0,1.8,1.6,3.3,3.5,3.3h19.6c1.9,0,3.5-1.5,3.5-3.3V7.8
	C33.6,6,32,4.6,30.1,4.6z"/>
<path class="st2" d="M30.1,45.1H10.4c-1.7,0-3-1.3-3-3V8c0-1.7,1.3-3,3-3h19.6c1.7,0,3,1.3,3,3v34C33.1,43.7,31.7,45.1,30.1,45.1z"
	/>
<path d="M13.7,29.2l4.3-4.9l1.6,2.3l-1.3,1.5h4.3c0,0,1.8,0.2,1.8-2.9c0,0,0.2-3-2-2.9h-6c0,0-1.7,0.1-1.6-1.3c0,0-0.1-1.3,1.5-1.2
	c1.6,0,6,0,6,0s2.4-0.2,3.4,1.4c1,1.6,1.5,6.3-0.4,8.2c0,0-0.8,1-2.9,1.1c-2.1,0.1-4,0-4,0l1.2,1.4L18,33.5L13.7,29.2z"/>
</svg>
