<?xml version="1.0" encoding="UTF-8"?>
<svg xmlns="http://www.w3.org/2000/svg" viewBox="0 0 50 50">
  <defs>
    <style>
      .cls-1 {
        fill: none;
        stroke: #fff;
        stroke-miterlimit: 10;
      }
    </style>
  </defs>
  <g id="Layer_1_copy">
    <path d="M46.54,30.88l-4.26-16.48c-.8-3.08-4.06-4.83-7.07-3.8H14.79c-3.01-1.03-6.27.72-7.07,3.8L3.46,30.88c-.72,2.77.82,5.63,3.53,6.55,2.71.93,5.67-.39,6.8-3.02l2.19-5.12c.33.15.7.23,1.09.23,1.52,0,2.75-1.23,2.75-2.75,0-.05-.01-.09-.01-.14h10.33s-.02.09-.02.14c0,1.52,1.24,2.75,2.76,2.75.4,0,.78-.09,1.13-.25l2.2,5.14c1.13,2.63,4.09,3.95,6.8,3.02,2.26-.77,3.71-2.88,3.71-5.17,0-.46-.06-.92-.18-1.38ZM14.73,22.4h-2.27v-2.21h-2.22v-2.27h2.22v-2.22h2.27v2.22h2.21v2.27h-2.21v2.21ZM33.05,20.35c-.72,0-1.3-.58-1.3-1.3s.58-1.29,1.3-1.29,1.29.58,1.29,1.29-.58,1.3-1.29,1.3ZM36.39,23.69c-.71,0-1.29-.58-1.29-1.29s.58-1.3,1.29-1.3,1.3.58,1.3,1.3-.58,1.29-1.3,1.29ZM36.39,17c-.71,0-1.29-.58-1.29-1.29s.58-1.3,1.29-1.3,1.3.58,1.3,1.3-.58,1.29-1.3,1.29ZM39.74,20.35c-.72,0-1.3-.58-1.3-1.3s.58-1.29,1.3-1.29,1.29.58,1.29,1.29-.58,1.3-1.29,1.3Z"/>
  </g>
  <g id="Layer_1">
    <path class="cls-1" d="M16.43,17.92h-1.2c-.28,0-.51-.23-.51-.51v-1.2c0-.28-.23-.51-.51-.51h-1.25c-.28,0-.51.23-.51.51v1.2c0,.28-.23.51-.51.51h-1.2c-.28,0-.51.23-.51.51v1.25c0,.28.23.51.51.51h1.2c.28,0,.51.23.51.51v1.2c0,.28.23.51.51.51h1.25c.28,0,.51-.23.51-.51v-1.2c0-.28.23-.51.51-.51h1.2c.28,0,.51-.23.51-.51v-1.25c0-.28-.23-.51-.51-.51Z"/>
    <g>
      <circle class="cls-1" cx="36.39" cy="22.4" r="1.29"/>
      <circle class="cls-1" cx="36.39" cy="15.71" r="1.29"/>
    </g>
    <circle class="cls-1" cx="33.05" cy="19.05" r="1.29"/>
    <circle class="cls-1" cx="39.74" cy="19.05" r="1.29"/>
    <path class="cls-1" d="M46.54,30.88l-4.27-16.47c-.8-3.09-4.05-4.84-7.07-3.81H14.79c-3.02-1.03-6.27.72-7.07,3.81L3.46,30.88c-.72,2.77.82,5.63,3.53,6.56,2.71.93,5.68-.39,6.8-3.03l2.19-5.11c.33.14.7.23,1.09.23.14,0,.28-.01.42-.03s.27-.05.41-.09.26-.09.38-.15.24-.13.35-.2.22-.16.31-.25.19-.19.27-.29.16-.22.23-.33.13-.24.18-.36.09-.26.12-.39.05-.28.07-.42c0-.12.01-.24,0-.36,0,0,10.3,0,10.3,0-.01.7.19,1.38.65,1.91.42.49,1,.83,1.63.94.16.03.31.04.47.04.4,0,.79-.09,1.13-.25l2.2,5.14c1.13,2.63,4.09,3.95,6.8,3.03s4.25-3.78,3.53-6.56Z"/>
  </g>
</svg>