<?xml version="1.0" encoding="UTF-8"?>
<svg id="Layer_3" xmlns="http://www.w3.org/2000/svg" viewBox="0 0 50 50">
  <defs>
    <style>
      .cls-1, .cls-2 {
        stroke-linejoin: round;
      }

      .cls-1, .cls-2, .cls-3, .cls-4 {
        stroke: #fff;
      }

      .cls-2, .cls-3 {
        fill: none;
      }

      .cls-3, .cls-4 {
        stroke-miterlimit: 10;
      }
    </style>
  </defs>
  <rect class="cls-4" x="10.28" y="7.35" width="28.99" height="39.22" rx="2.62" ry="2.62"/>
  <path class="cls-4" d="M34.06,5.6h-7.14c.08-.22.13-.46.13-.7,0-1.25-1.01-2.26-2.26-2.26s-2.26,1.01-2.26,2.26c0,.24.05.48.13.7h-7.17c-.34,0-.63.28-.63.63v2.29c0,.35.29.63.63.63h18.57c.35,0,.63-.28.63-.63v-2.29c0-.35-.28-.63-.63-.63ZM24.79,5.56c-.36,0-.66-.3-.66-.66s.3-.66.66-.66.66.29.66.66-.29.66-.66.66Z"/>
  <g>
    <line class="cls-3" x1="21.69" y1="15.29" x2="35.91" y2="15.29"/>
    <line class="cls-3" x1="21.69" y1="17.54" x2="35.91" y2="17.54"/>
    <line class="cls-3" x1="21.69" y1="19.78" x2="30.17" y2="19.78"/>
  </g>
  <g>
    <line class="cls-3" x1="21.69" y1="35.1" x2="30.17" y2="35.1"/>
    <line class="cls-3" x1="21.69" y1="37.34" x2="35.91" y2="37.34"/>
    <line class="cls-3" x1="21.69" y1="39.59" x2="35.91" y2="39.59"/>
  </g>
  <g>
    <line class="cls-3" x1="21.69" y1="25.19" x2="35.91" y2="25.19"/>
    <line class="cls-3" x1="21.69" y1="27.44" x2="30.17" y2="27.44"/>
    <line class="cls-3" x1="21.69" y1="29.69" x2="35.91" y2="29.69"/>
  </g>
  <g>
    <rect class="cls-4" x="13.32" y="24.14" width="6.61" height="6.61" rx=".99" ry=".99"/>
    <polyline class="cls-2" points="18.44 25.98 15.53 28.9 14.94 27.57"/>
  </g>
  <g>
    <rect class="cls-4" x="13.32" y="34.04" width="6.61" height="6.61" rx=".99" ry=".99"/>
    <polyline class="cls-2" points="18.44 35.88 15.53 38.81 14.94 37.47"/>
  </g>
  <g>
    <rect class="cls-4" x="13.32" y="14.23" width="6.61" height="6.61" rx=".99" ry=".99"/>
    <polyline class="cls-2" points="18.44 16.07 15.53 19 14.94 17.66"/>
  </g>
  <g>
    <rect class="cls-4" x="34.98" y="25.55" width="3.89" height="17.08" transform="translate(22.23 -13.97) rotate(30.28)"/>
    <polygon class="cls-1" points="30.47 45.15 30.47 45.15 30.74 40.82 34.11 42.79 30.47 45.15"/>
    <rect class="cls-4" x="40.3" y="23.05" width="3.87" height="3.89" transform="translate(-.65 48.87) rotate(-59.72)"/>
  </g>
</svg>