<?xml version="1.0" encoding="utf-8"?>
<!-- Generator: Adobe Illustrator 27.7.0, SVG Export Plug-In . SVG Version: 6.00 Build 0)  -->
<svg version="1.1" id="Layer_1" xmlns="http://www.w3.org/2000/svg" xmlns:xlink="http://www.w3.org/1999/xlink" x="0px" y="0px"
	 viewBox="0 0 50 50" style="enable-background:new 0 0 50 50;" xml:space="preserve">
<style type="text/css">
	.st0{fill:#1FBEF0;stroke:#000000;stroke-width:2;stroke-miterlimit:10;}
</style>
<circle class="st0" cx="25" cy="25" r="23.7"/>
<g>
	<path d="M26,21c0-1-0.1-2-0.4-2.9c-0.3-0.9-0.9-1.7-1.6-2.4c-0.7-0.7-1.6-1.1-2.6-1.3c-1.1-0.2-2.1-0.2-3.2,0.1
		c-1.3,0.3-2.3,1.2-3,2.4c-0.3,0.6-0.6,1.2-0.6,1.8c0,0.4,0,0.7,0,1.1c0,0.1,0,0.3,0,0.4c0,0.3-0.3,0.5-0.6,0.6
		c-0.2,0-0.3-0.1-0.4-0.3C13.2,20,13,19.4,13,18.7c0-0.5,0.2-1,0.4-1.5c0.7-1.5,1.7-2.7,3.1-3.5c0.8-0.4,1.7-0.7,2.5-0.7
		C20,13,21,13,21.9,13.1c0.7,0.1,1.3,0.3,1.9,0.7c1.2,0.6,2,1.6,2.7,2.7c1,1.6,1.3,3.3,1.2,5.2c-0.1,1.5-0.7,2.9-1.5,4.2
		c-0.6,0.9-1.2,1.9-1.7,2.8c-0.3,0.6-0.6,1.2-0.9,1.8c-0.3,0.7-0.5,1.5-0.9,2.3c-0.4,0.9-0.8,1.8-1.3,2.6c-0.7,0.9-1.6,1.5-2.7,1.6
		c-1.3,0.2-2.4-0.3-3.3-1.3c-0.8-0.9-1.1-1.9-1-3.1c0-0.3,0.1-0.5,0.2-0.8c0.1-0.3,0.4-0.5,0.8-0.4c0.1,0,0.2,0.1,0.2,0.2
		c0,0.2,0,0.3-0.1,0.5c-0.2,0.8-0.1,1.5,0.2,2.2c0.3,0.6,0.8,1,1.5,1.2c0.6,0.1,1.2,0.1,1.7,0c0.9-0.2,1.6-0.8,2.1-1.6
		c0.5-0.9,0.9-1.8,1.2-2.8c0.3-0.8,0.6-1.7,0.9-2.5c0.4-0.9,0.9-1.7,1.4-2.6c0.4-0.6,0.8-1.3,1-2C25.9,23.1,26,22,26,21L26,21z"/>
	<path d="M24.1,21.2c0,0.2,0,0.4,0,0.5c0,0.1,0,0.1,0,0.2c0,0,0,0.1-0.1,0.1s0,0,0-0.1c-0.1-0.3-0.1-0.5-0.1-0.8
		c-0.1-0.6-0.2-1.1-0.5-1.7c-0.6-1.2-1.7-1.4-2.6-1c-0.8,0.3-1.3,0.9-1.5,1.7c-0.3,1.3-0.1,2.5,0.5,3.6c0.1,0.2,0.3,0.4,0.5,0.6
		c0.8,1.1,1.2,2.3,0.7,3.7c-0.3,1-1,1.6-2,1.9c-0.7,0.2-1.4-0.1-1.8-0.7c-0.2-0.3-0.2-0.6-0.1-1c0.3-0.5,0.5-1.1,0.7-1.7
		c0,0,0-0.1,0-0.1c0.2-0.5,0.1-1-0.3-1.4c-0.2-0.3-0.5-0.6-0.7-0.9c-0.3-0.3-0.3-0.7-0.2-1c0.1-0.4,0.2-0.7,0.5-1
		c0.3-0.3,0.4-0.6,0.4-1c0-0.5,0-0.9,0-1.4c0.1-1.5,1-2.4,2.5-2.7c1.3-0.2,2.4,0.2,3.2,1.2c0.5,0.6,0.7,1.3,0.9,2
		C24,20.6,24.1,20.9,24.1,21.2L24.1,21.2z"/>
	<path d="M37,25.2c0,2-0.7,4.1-2.1,5.9c-0.2,0.3-0.5,0.3-0.8,0.2c-0.3-0.2-0.3-0.6-0.1-0.9c0.4-0.5,0.7-1,1-1.6
		c0.7-1.5,1-3.1,0.8-4.8c-0.2-1.4-0.7-2.8-1.5-4c-0.1-0.1-0.2-0.3-0.3-0.4c-0.3-0.4-0.1-0.9,0.4-1c0.2,0,0.4,0,0.5,0.2
		c0.8,1,1.3,2,1.7,3.2C36.8,23,37,23.9,37,25.2L37,25.2z"/>
	<path d="M34.5,24.9c0,1.4-0.3,2.7-1,3.8c-0.3,0.4-0.6,0.8-0.9,1.2c-0.2,0.2-0.7,0.1-0.9-0.2c-0.1-0.3,0-0.5,0.1-0.7
		c0.7-0.7,1.2-1.6,1.4-2.6c0.3-1.4,0.1-2.8-0.5-4c-0.2-0.5-0.5-0.9-0.9-1.2c-0.3-0.3-0.2-0.8,0.1-1c0.2-0.1,0.5-0.1,0.6,0.1
		c0.3,0.3,0.5,0.6,0.7,0.9C34.2,22.3,34.5,23.6,34.5,24.9L34.5,24.9z"/>
	<path d="M32.3,25c0,1.4-0.6,2.6-1.7,3.5c-0.3,0.2-0.6,0.2-0.8-0.1c-0.2-0.3-0.2-0.7,0.1-0.9c0.6-0.4,0.9-0.9,1.1-1.6
		c0.4-1.3,0-2.7-1.1-3.6c-0.3-0.2-0.4-0.7-0.1-1c0.2-0.2,0.4-0.2,0.7-0.1c0.5,0.3,0.9,0.7,1.2,1.2c0.3,0.5,0.5,1.1,0.6,1.7
		C32.2,24.6,32.3,24.8,32.3,25z"/>
</g>
</svg>
