<?xml version="1.0" encoding="UTF-8"?>
<svg xmlns="http://www.w3.org/2000/svg" version="1.1" viewBox="0 0 50 50">
  <defs>
    <style>
      .cls-1 {
        stroke: #fff;
        stroke-miterlimit: 10;
      }
    </style>
  </defs>
  <!-- Generator: Adobe Illustrator 28.7.5, SVG Export Plug-In . SVG Version: 1.2.0 Build 176)  -->
  <g>
    <g id="Layer_1">
      <g>
        <path class="cls-1" d="M23.97,21.83c-.39,1.23-.85,2.45-1.38,3.62-.28.63-.59,1.26-.91,1.88,1.83-.73,3.72-1.29,5.64-1.64-1.28-1.13-2.42-2.44-3.35-3.86ZM23.97,21.83c-.39,1.23-.85,2.45-1.38,3.62-.28.63-.59,1.26-.91,1.88,1.83-.73,3.72-1.29,5.64-1.64-1.28-1.13-2.42-2.44-3.35-3.86ZM23.97,21.83c-.39,1.23-.85,2.45-1.38,3.62-.28.63-.59,1.26-.91,1.88,1.83-.73,3.72-1.29,5.64-1.64-1.28-1.13-2.42-2.44-3.35-3.86Z"/>
        <path class="cls-1" d="M42.03,12.74l-9.82-9.82H8.64c-1.08,0-1.96.87-1.96,1.95v35.38c0,1.05.88,1.95,1.95,1.95h31.45c1.08,0,1.96-.89,1.96-1.98V12.74ZM33.9,29.41c-6.16-.88-12.52,1.75-18.27,5.59l-2.32-3.17c2.13-1.71,4.18-4.61,5.7-7.99,1.51-3.37,2.4-7.02,2.4-10.12h3.93c0,4.89,4.21,10.14,9.46,11.89l-.9,3.8Z"/>
      </g>
    </g>
  </g>
</svg>