<?xml version="1.0" encoding="UTF-8"?>
<svg id="Layer_1" xmlns="http://www.w3.org/2000/svg" viewBox="0 0 50 50">
  <defs>
    <style>
      .cls-1 {
        fill: #fff;
      }

      .cls-2 {
        fill: none;
        stroke: #fff;
        stroke-miterlimit: 10;
      }
    </style>
  </defs>
  <g>
    <rect x="12.5" y="10.46" width="25" height="24.93"/>
    <path d="M37.5,37.96H12.5c-.83,0-1.5-.67-1.5-1.5V9.4c0-.83.67-1.5,1.5-1.5h25c.83,0,1.5.67,1.5,1.5v27.06c0,.83-.67,1.5-1.5,1.5ZM14,32.83h22V13.03H14v19.8Z"/>
  </g>
  <path d="M37.5,10.92H12.5c-.83,0-1.5-.67-1.5-1.5s.67-1.5,1.5-1.5h11v-.58c0-.83.67-1.5,1.5-1.5s1.5.67,1.5,1.5v.58h11c.83,0,1.5.67,1.5,1.5s-.67,1.5-1.5,1.5Z"/>
  <path d="M12.5,44.25c-.29,0-.58-.08-.83-.25-.69-.46-.88-1.39-.42-2.08l2.61-3.92h-1.36c-.83,0-1.5-.67-1.5-1.5s.67-1.5,1.5-1.5h4.15s.03,0,.04,0h16.62s.03,0,.04,0h4.15c.83,0,1.5.67,1.5,1.5s-.67,1.5-1.5,1.5h-1.36l2.61,3.92c.46.69.27,1.62-.42,2.08-.69.46-1.62.27-2.08-.42l-3.72-5.58h-6.03v4.75c0,.83-.67,1.5-1.5,1.5s-1.5-.67-1.5-1.5v-4.75h-6.03l-3.72,5.58c-.29.43-.76.67-1.25.67Z"/>
  <g>
    <path class="cls-1" d="M21.58,21.37c0,.92-.29,1.63-.86,2.12s-1.4.73-2.46.73h-.78v3.05h-1.82v-8.57h2.74c1.04,0,1.83.22,2.37.67s.81,1.11.81,2ZM17.48,22.73h.6c.56,0,.98-.11,1.25-.33s.42-.54.42-.96-.12-.74-.35-.94-.6-.3-1.09-.3h-.83v2.54Z"/>
    <path class="cls-1" d="M29.11,21.37c0,.92-.29,1.63-.86,2.12s-1.4.73-2.46.73h-.78v3.05h-1.82v-8.57h2.74c1.04,0,1.83.22,2.37.67s.81,1.11.81,2ZM25.01,22.73h.6c.56,0,.98-.11,1.25-.33s.42-.54.42-.96-.12-.74-.35-.94-.6-.3-1.09-.3h-.83v2.54Z"/>
    <path class="cls-1" d="M34.04,27.27h-1.82v-7.05h-2.33v-1.51h6.47v1.51h-2.33v7.05Z"/>
  </g>
  <path class="cls-2" d="M38.75,41.92l-2.61-3.92h1.36c.83,0,1.5-.67,1.5-1.5,0,0,0-.01,0-.02,0,0,0-.01,0-.02V9.4c0-.83-.67-1.5-1.5-1.5h-11v-.56c0-.83-.67-1.5-1.5-1.5s-1.5.67-1.5,1.5v.56h-11c-.83,0-1.5.67-1.5,1.5v27.06s0,.01,0,.02c0,0,0,.01,0,.02,0,.83.67,1.5,1.5,1.5h1.36l-2.61,3.92c-.46.69-.27,1.62.42,2.08.26.17.54.25.83.25.48,0,.96-.23,1.25-.67l3.72-5.58h6.03v4.75c0,.83.67,1.5,1.5,1.5s1.5-.67,1.5-1.5v-4.75h6.03l3.72,5.58c.46.69,1.39.87,2.08.42.69-.46.88-1.39.42-2.08Z"/>
</svg>