<?xml version="1.0" encoding="UTF-8"?>
<svg id="Layer_1" xmlns="http://www.w3.org/2000/svg" viewBox="0 0 50 50">
  <defs>
    <style>
      .cls-1 {
        fill: #fff;
      }

      .cls-2 {
        stroke: #fff;
        stroke-miterlimit: 10;
      }
    </style>
  </defs>
  <path d="M25.65,28.04c0,.52-.28.98-.74,1.23l-5.88,3.21c-.45.24-.96.23-1.4-.03-.44-.26-.69-.7-.69-1.21v-6.48c0-.51.25-.96.69-1.22.23-.13.47-.2.72-.2.23,0,.47.06.69.18l5.88,3.27c.46.26.73.72.73,1.25Z"/>
  <path class="cls-1" d="M25.65,28.04c0,.52-.28.98-.74,1.23l-5.88,3.21c-.45.24-.96.23-1.4-.03-.44-.26-.69-.7-.69-1.21v-6.48c0-.51.25-.96.69-1.22.23-.13.47-.2.72-.2.23,0,.47.06.69.18l5.88,3.27c.46.26.73.72.73,1.25Z"/>
  <path class="cls-2" d="M45.63,18.47c-.38-.28-.88-.36-1.33-.22l-8.47,2.67v-4.38c0-.83-.67-1.5-1.5-1.5h-2.98c.49-.73.78-1.62.78-2.57,0-2.55-2.08-4.63-4.63-4.63s-4.62,2.08-4.62,4.63c0,.95.29,1.84.78,2.57h-4.96c.49-.73.78-1.62.78-2.57,0-2.55-2.08-4.63-4.63-4.63s-4.62,2.08-4.62,4.63c0,.95.29,1.84.78,2.57h-3.76c-.83,0-1.5.67-1.5,1.5v22.92c0,.82.67,1.5,1.5,1.5h27.08c.83,0,1.5-.68,1.5-1.5v-4.36l8.47,2.67c.14.05.3.07.45.07.31,0,.62-.1.88-.29.39-.28.62-.73.62-1.21v-16.66c0-.47-.23-.92-.62-1.21ZM24.91,29.27l-5.88,3.21c-.45.24-.96.23-1.4-.03-.44-.26-.69-.7-.69-1.21v-6.48c0-.51.25-.96.69-1.22.23-.13.47-.2.72-.2.23,0,.47.06.69.18l5.88,3.27c.46.26.73.72.73,1.25s-.28.98-.74,1.23Z"/>
</svg>